<?xml version="1.0" encoding="UTF-8" standalone="no"?>
<!-- CLEANED: 1496093244/e8b8658e947e33130225d08ee38711f9 -->
<!-- Created with Inkscape (http://www.inkscape.org/) -->
<svg
   xmlns:dc="http://purl.org/dc/elements/1.1/"
   xmlns:cc="http://creativecommons.org/ns#"
   xmlns:rdf="http://www.w3.org/1999/02/22-rdf-syntax-ns#"
   xmlns:svg="http://www.w3.org/2000/svg"
   xmlns="http://www.w3.org/2000/svg"
   xmlns:sodipodi="http://sodipodi.sourceforge.net/DTD/sodipodi-0.dtd"
   xmlns:inkscape="http://www.inkscape.org/namespaces/inkscape"
   version="1.1"
   width="450"
   height="550"
   id="svg2"
   xml:space="preserve"
   inkscape:version="0.48.3.1 r9886"
   sodipodi:docname="gestures-020.svg"><sodipodi:namedview
     pagecolor="#dddddd"
     bordercolor="#666666"
     borderopacity="1"
     objecttolerance="10"
     gridtolerance="10"
     guidetolerance="10"
     inkscape:pageopacity="1"
     inkscape:pageshadow="2"
     id="namedview8"
     showgrid="false" /><metadata
     id="metadata8"><rdf:RDF><cc:Work
         rdf:about=""><dc:format>image/svg+xml</dc:format><dc:type
           rdf:resource="http://purl.org/dc/dcmitype/StillImage" /><dc:title /></cc:Work></rdf:RDF></metadata><defs
     id="defs6" /><g
     inkscape:groupmode="layer"
     id="layer1"
     inkscape:label="BG"
     style="display:inline"><g
       transform="matrix(1.25,0,0,-1.5053191,0,662.34043)"
       id="g10"
       style="fill:#ffff00;fill-opacity:1"><g
         id="g12"
         style="fill:#ffff00;fill-opacity:1"><path
           d="m 0,64 360,0 0,376 -360,0 z"
           id="path14"
           style="fill:#ffff00;fill-opacity:1;fill-rule:nonzero;stroke:none"
           sodipodi:nodetypes="ccccc" /></g></g></g><g
     inkscape:groupmode="layer"
     id="layer2"
     inkscape:label="DRAW"><text
   xml:space="preserve"
   style="font-size:65.02900696000000380px;font-style:normal;font-variant:normal;font-weight:bold;font-stretch:normal;text-align:start;line-height:140.99999665999999365%;letter-spacing:0px;word-spacing:0px;writing-mode:lr-tb;text-anchor:start;fill:#ff3300;fill-opacity:1;stroke:none;font-family:Belgika;-inkscape-font-specification:Belgika Bold"
   x="60.607498"
   y="275.97354"
   id="text5158"
   sodipodi:linespacing="141%"><tspan
     sodipodi:role="line"
     id="tspan5160"
     x="60.607498"
     y="275.97354">AWKWARD</tspan></text>
<text
   sodipodi:linespacing="141%"
   id="text5162"
   y="338.97354"
   x="58.619545"
   style="font-size:65.02900696000000380px;font-style:normal;font-variant:normal;font-weight:bold;font-stretch:normal;text-align:start;line-height:140.99999665999999365%;letter-spacing:0px;word-spacing:0px;writing-mode:lr-tb;text-anchor:start;fill:#ff3300;fill-opacity:1;stroke:none;font-family:Belgika;-inkscape-font-specification:Belgika Bold"
   xml:space="preserve"><tspan
     y="338.97354"
     x="58.619545"
     id="tspan5164"
     sodipodi:role="line">GESTURES</tspan></text>
<path
   id="path3888"
   d="m 230.63208,147.16048 c 0,-9.56258 7.75289,-17.3146 17.31658,-17.3146 3.34729,0 6.46511,0.97544 9.11398,2.61997 l 0,29.38926 c -2.64887,1.64452 -5.76669,2.61997 -9.11398,2.61997 -9.56369,0 -17.31658,-7.75202 -17.31658,-17.3146 z"
   style="color:#000000;fill:#ff3300;stroke:#ff3300;stroke-width:2;stroke-miterlimit:4;stroke-dasharray:none;marker:none;visibility:visible;display:inline;overflow:visible;enable-background:accumulate;stroke-opacity:1;fill-opacity:1" /><path
   style="color:#000000;fill:#ffff00;stroke:none;stroke-width:1;marker:none;visibility:visible;display:inline;overflow:visible;enable-background:accumulate"
   d="m 268.92906,125.28941 0,56.50028 197.19736,0 0,-56.50028 z"
   id="path4763"
   sodipodi:nodetypes="ccccc" /><path
   sodipodi:nodetypes="cccc"
   id="path4765"
   d="m 274.39746,181.78969 191.72896,0 m 0,-56.50028 -191.72896,0"
   style="color:#000000;fill:none;stroke:#ff3300;stroke-width:1;stroke-miterlimit:4;stroke-dasharray:none;marker:none;visibility:visible;display:inline;overflow:visible;enable-background:accumulate;stroke-opacity:1" /><path
   style="font-size:medium;font-style:normal;font-variant:normal;font-weight:normal;font-stretch:normal;text-indent:0;text-align:start;text-decoration:none;line-height:normal;letter-spacing:normal;word-spacing:normal;text-transform:none;direction:ltr;block-progression:tb;writing-mode:lr-tb;text-anchor:start;baseline-shift:baseline;color:#000000;fill:#ffff00;fill-opacity:1;fill-rule:nonzero;stroke:none;stroke-width:1;marker:none;visibility:visible;display:inline;overflow:visible;enable-background:accumulate;font-family:Sans;-inkscape-font-specification:Sans"
   d="m 310.83517,168.57591 0,-57.41158 c 0,-4.44894 -3.29747,-7.74601 -7.74689,-7.74601 l -7.74689,0 c -4.44944,0 -7.74689,3.29707 -7.74689,7.74601 l 0,20.95978 -18.22798,0 0,-20.95978 c 0,-14.23078 11.74244,-25.9719 25.97487,-25.9719 l 7.74689,0 c 14.23242,0 25.97486,11.74112 25.97486,25.9719 l 0,57.41158 z"
   id="path4767"
   sodipodi:nodetypes="cssssccsssscc" /><path
   sodipodi:nodetypes="cssssccssssc"
   id="path4769"
   d="m 269.36652,132.12411 0,-20.95978 c 0,-14.23078 11.74245,-25.97191 25.97487,-25.97191 l 7.74689,0 c 14.23242,0 25.97486,11.74113 25.97486,25.97191 l 0,57.41158 m -18.22798,0 0,-57.41158 c 0,-4.44894 -3.29746,-7.74601 -7.74688,-7.74601 l -7.74689,0 c -4.44944,0 -7.74689,3.29707 -7.74689,7.74601 l 0,20.95978"
   style="font-size:medium;font-style:normal;font-variant:normal;font-weight:normal;font-stretch:normal;text-indent:0;text-align:start;text-decoration:none;line-height:normal;letter-spacing:normal;word-spacing:normal;text-transform:none;direction:ltr;block-progression:tb;writing-mode:lr-tb;text-anchor:start;baseline-shift:baseline;color:#000000;fill:none;stroke:#ff3300;stroke-width:1;stroke-linecap:butt;stroke-linejoin:miter;stroke-miterlimit:4;stroke-opacity:1;stroke-dasharray:none;stroke-dashoffset:0;marker:none;visibility:visible;display:inline;overflow:visible;enable-background:accumulate;font-family:Sans;-inkscape-font-specification:Sans" /><path
   id="path4811"
   d="m 260.72647,164.47508 c 9.56369,0 17.31658,-7.75202 17.31658,-17.3146 0,-9.56258 -7.75289,-17.3146 -17.31658,-17.3146 -9.56366,0 -17.31656,7.75202 -17.31656,17.3146 0,9.56258 7.7529,17.3146 17.31656,17.3146 z"
   style="color:#000000;fill:#ff3300;stroke:#ff3300;stroke-width:1;stroke-linecap:butt;stroke-linejoin:miter;stroke-miterlimit:4;stroke-opacity:1;stroke-dasharray:none;stroke-dashoffset:0;marker:none;visibility:visible;display:inline;overflow:visible;enable-background:accumulate;fill-opacity:1" /><path
   id="path4771"
   d="m 274.83491,150.35001 0,-75.63748 c 0,-4.44894 -3.29745,-7.74601 -7.74689,-7.74601 l -2.27849,0 c -4.44944,0 -7.74689,3.29707 -7.74689,7.74601 l 0,90.2182 -18.22797,0 0,-90.2182 c 0,-14.23078 11.74244,-25.971901 25.97486,-25.971901 l 2.27849,0 c 14.23243,0 25.97487,11.741121 25.97487,25.971901 l 0,75.63748 z"
   style="font-size:medium;font-style:normal;font-variant:normal;font-weight:normal;font-stretch:normal;text-indent:0;text-align:start;text-decoration:none;line-height:normal;letter-spacing:normal;word-spacing:normal;text-transform:none;direction:ltr;block-progression:tb;writing-mode:lr-tb;text-anchor:start;baseline-shift:baseline;color:#000000;fill:#ffff00;fill-opacity:1;stroke:none;stroke-width:1;marker:none;visibility:visible;display:inline;overflow:visible;enable-background:accumulate;font-family:Sans;-inkscape-font-specification:Sans"
   sodipodi:nodetypes="cssssccsssscc" /><path
   sodipodi:nodetypes="cssssccssssc"
   style="font-size:medium;font-style:normal;font-variant:normal;font-weight:normal;font-stretch:normal;text-indent:0;text-align:start;text-decoration:none;line-height:normal;letter-spacing:normal;word-spacing:normal;text-transform:none;direction:ltr;block-progression:tb;writing-mode:lr-tb;text-anchor:start;baseline-shift:baseline;color:#000000;fill:none;stroke:#ff3300;stroke-width:1;stroke-miterlimit:4;stroke-dasharray:none;marker:none;visibility:visible;display:inline;overflow:visible;enable-background:accumulate;font-family:Sans;-inkscape-font-specification:Sans;stroke-opacity:1"
   d="m 238.83466,164.93073 0,-90.2182 c 0,-14.23078 11.74245,-25.971901 25.97487,-25.971901 l 2.2785,0 c 14.23242,0 25.97486,11.741121 25.97486,25.971901 l 0,75.63748 m -18.22798,0 0,-75.63748 c 0,-4.44894 -3.29746,-7.746 -7.74688,-7.746 l -2.2785,0 c -4.44943,0 -7.74689,3.29706 -7.74689,7.746 l 0,90.2182"
   id="path4773" /><path
   style="font-size:medium;font-style:normal;font-variant:normal;font-weight:normal;font-stretch:normal;text-indent:0;text-align:start;text-decoration:none;line-height:normal;letter-spacing:normal;word-spacing:normal;text-transform:none;direction:ltr;block-progression:tb;writing-mode:lr-tb;text-anchor:start;baseline-shift:baseline;color:#000000;fill:#ffff00;fill-opacity:1;fill-rule:nonzero;stroke:none;stroke-width:1;marker:none;visibility:visible;display:inline;overflow:visible;enable-background:accumulate;font-family:Sans;-inkscape-font-specification:Sans"
   d="m 287.5945,162.65249 0,38.2744 c 0,4.44892 3.29745,7.746 7.74689,7.746 l 60.60801,0 c 4.44943,0 7.74689,-3.29708 7.74689,-7.746 l 0,-2.73389 c 0,-4.44893 -3.29746,-7.74601 -7.74689,-7.74601 l 0,-18.2259 c 14.23242,0 25.97487,11.74111 25.97487,25.97191 l 0,2.73389 c 0,14.23079 -11.74245,25.97189 -25.97487,25.97189 l -60.60802,0 c -14.23242,0 -25.97486,-11.7411 -25.97486,-25.97189 l 0,-38.2744 z"
   id="path4775"
   sodipodi:nodetypes="csssssccssssscc" /><path
   sodipodi:nodetypes="csssssccsssssc"
   id="path4777"
   d="m 287.5945,162.65249 0,38.27439 c 0,4.44893 3.29745,7.74601 7.74689,7.74601 l 60.60801,0 c 4.44943,0 7.7469,-3.29708 7.7469,-7.74601 l 0,-2.73388 c 0,-4.44893 -3.29747,-7.74601 -7.7469,-7.74601 m 0,-18.22591 c 14.23243,0 25.97487,11.74112 25.97487,25.97192 l 0,2.73388 c 0,14.2308 -11.74244,25.97191 -25.97487,25.97191 l -60.60802,0 c -14.23241,0 -25.97486,-11.74111 -25.97486,-25.97191 l 0,-38.27439"
   style="font-size:medium;font-style:normal;font-variant:normal;font-weight:normal;font-stretch:normal;text-indent:0;text-align:start;text-decoration:none;line-height:normal;letter-spacing:normal;word-spacing:normal;text-transform:none;direction:ltr;block-progression:tb;writing-mode:lr-tb;text-anchor:start;baseline-shift:baseline;color:#000000;fill:none;stroke:#ff3300;stroke-width:1;stroke-linecap:butt;stroke-linejoin:miter;stroke-miterlimit:4;stroke-opacity:1;stroke-dasharray:none;stroke-dashoffset:0;marker:none;visibility:visible;display:inline;overflow:visible;enable-background:accumulate;font-family:Sans;-inkscape-font-specification:Sans" /><path
   style="font-size:medium;font-style:normal;font-variant:normal;font-weight:normal;font-stretch:normal;text-indent:0;text-align:start;text-decoration:none;line-height:normal;letter-spacing:normal;word-spacing:normal;text-transform:none;direction:ltr;block-progression:tb;writing-mode:lr-tb;text-anchor:start;baseline-shift:baseline;color:#000000;fill:#ffff00;fill-opacity:1;fill-rule:nonzero;stroke:none;stroke-width:1;marker:none;visibility:visible;display:inline;overflow:visible;enable-background:accumulate;font-family:Sans;-inkscape-font-specification:Sans"
   d="m 293.06289,131.66847 0,111.17798 c 0,4.44894 3.29746,7.74601 7.74689,7.74601 l 2.2785,0 c 4.44942,0 7.74689,-3.29707 7.74689,-7.74601 l 0,-125.7587 18.22797,0 0,125.7587 c 0,14.23078 -11.74244,25.97191 -25.97486,25.97191 l -2.2785,0 c -14.23242,0 -25.97487,-11.74113 -25.97487,-25.97191 l 0,-111.17798 z"
   id="path4779"
   sodipodi:nodetypes="cssssccsssscc" /><path
   sodipodi:nodetypes="cssssccssssc"
   id="path4781"
   d="m 329.06314,117.08775 0,125.75869 c 0,14.23079 -11.74244,25.97192 -25.97486,25.97192 l -2.2785,0 c -14.23242,0 -25.97487,-11.74113 -25.97487,-25.97192 l 0,-111.17797 m 18.22798,0 0,111.17797 c 0,4.44895 3.29746,7.74602 7.74689,7.74602 l 2.2785,0 c 4.44942,0 7.74688,-3.29707 7.74688,-7.74602 l 0,-125.75869"
   style="font-size:medium;font-style:normal;font-variant:normal;font-weight:normal;font-stretch:normal;text-indent:0;text-align:start;text-decoration:none;line-height:normal;letter-spacing:normal;word-spacing:normal;text-transform:none;direction:ltr;block-progression:tb;writing-mode:lr-tb;text-anchor:start;baseline-shift:baseline;color:#000000;fill:none;stroke:#ff3300;stroke-width:1;stroke-linecap:butt;stroke-linejoin:miter;stroke-miterlimit:4;stroke-opacity:1;stroke-dasharray:none;stroke-dashoffset:0;marker:none;visibility:visible;display:inline;overflow:visible;enable-background:accumulate;font-family:Sans;-inkscape-font-specification:Sans" /><path
   id="path4783"
   d="m 226.53078,172.22109 129.41862,0 c 14.23242,0 25.97487,11.74111 25.97487,25.97191 l -18.22798,0 c 0,-4.44893 -3.29746,-7.74601 -7.74689,-7.74601 l -129.41863,0 z"
   style="font-size:medium;font-style:normal;font-variant:normal;font-weight:normal;font-stretch:normal;text-indent:0;text-align:start;text-decoration:none;line-height:normal;letter-spacing:normal;word-spacing:normal;text-transform:none;direction:ltr;block-progression:tb;writing-mode:lr-tb;text-anchor:start;baseline-shift:baseline;color:#000000;fill:#ffffff;fill-opacity:1;stroke:none;stroke-width:10;marker:none;visibility:visible;display:inline;overflow:visible;enable-background:accumulate;font-family:Sans;-inkscape-font-specification:Sans"
   sodipodi:nodetypes="csccscc" /><g
   style="stroke:#ff0000;stroke-width:0.54863852;stroke-miterlimit:4;stroke-dasharray:none;display:inline"
   transform="matrix(-1.8227977,0,0,1.8225899,338.91685,-1635.1202)"
   id="g4793"><path
     style="font-size:medium;font-style:normal;font-variant:normal;font-weight:normal;font-stretch:normal;text-indent:0;text-align:start;text-decoration:none;line-height:normal;letter-spacing:normal;word-spacing:normal;text-transform:none;direction:ltr;block-progression:tb;writing-mode:lr-tb;text-anchor:start;baseline-shift:baseline;color:#000000;fill:none;stroke:#ff3300;stroke-width:0.54863852000000002;stroke-miterlimit:4;stroke-dasharray:none;marker:none;visibility:visible;display:inline;overflow:visible;enable-background:accumulate;font-family:Sans;-inkscape-font-specification:Sans;stroke-opacity:1"
     d="m 71.25953,994.3137 7.77,0 c 0.6419,0.01 1.2323,-0.5731 1.2323,-1.215 0,-0.642 -0.5904,-1.2241 -1.2323,-1.215 l -15.77,0"
     id="path4795"
     sodipodi:nodetypes="ccscc" /><path
     style="font-size:medium;font-style:normal;font-variant:normal;font-weight:normal;font-stretch:normal;text-indent:0;text-align:start;text-decoration:none;line-height:normal;letter-spacing:normal;word-spacing:normal;text-transform:none;direction:ltr;block-progression:tb;writing-mode:lr-tb;text-anchor:start;baseline-shift:baseline;color:#000000;fill:none;stroke:#ff3300;stroke-width:0.54863852000000002;stroke-miterlimit:4;stroke-dasharray:none;marker:none;visibility:visible;display:inline;overflow:visible;enable-background:accumulate;font-family:Sans;-inkscape-font-specification:Sans;stroke-opacity:1"
     d="m 70.25953,996.7437 7.15,0 c 0.6419,0.01 1.2323,-0.5731 1.2323,-1.215 0,-0.642 -0.5904,-1.2241 -1.2323,-1.215 l -6.15,0"
     id="path4797"
     sodipodi:nodetypes="ccscc" /><path
     style="font-size:medium;font-style:normal;font-variant:normal;font-weight:normal;font-stretch:normal;text-indent:0;text-align:start;text-decoration:none;line-height:normal;letter-spacing:normal;word-spacing:normal;text-transform:none;direction:ltr;block-progression:tb;writing-mode:lr-tb;text-anchor:start;baseline-shift:baseline;color:#000000;fill:none;stroke:#ff3300;stroke-width:0.54863852000000002;stroke-miterlimit:4;stroke-dasharray:none;marker:none;visibility:visible;display:inline;overflow:visible;enable-background:accumulate;font-family:Sans;-inkscape-font-specification:Sans;stroke-opacity:1"
     d="m 68.25953,999.1737 7.53,0 c 0.6419,0.01 1.2323,-0.5731 1.2323,-1.215 0,-0.642 -0.5904,-1.2241 -1.2323,-1.215 l -5.53,0"
     id="path4799"
     sodipodi:nodetypes="ccscc" /><path
     style="font-size:medium;font-style:normal;font-variant:normal;font-weight:normal;font-stretch:normal;text-indent:0;text-align:start;text-decoration:none;line-height:normal;letter-spacing:normal;word-spacing:normal;text-transform:none;direction:ltr;block-progression:tb;writing-mode:lr-tb;text-anchor:start;baseline-shift:baseline;color:#000000;fill:none;stroke:#ff3300;stroke-width:0.54863852000000002;stroke-miterlimit:4;stroke-dasharray:none;marker:none;visibility:visible;display:inline;overflow:visible;enable-background:accumulate;font-family:Sans;-inkscape-font-specification:Sans;stroke-opacity:1"
     d="m 63.25953,1001.6037 10.91,0 c 0.6419,0.01 1.2323,-0.5731 1.2323,-1.215 0,-0.642 -0.5904,-1.2241 -1.2323,-1.215 l -5.91,0"
     id="path4801"
     sodipodi:nodetypes="ccscc" /></g><path
   style="font-size:medium;font-style:normal;font-variant:normal;font-weight:normal;font-stretch:normal;text-indent:0;text-align:start;text-decoration:none;line-height:normal;letter-spacing:normal;word-spacing:normal;text-transform:none;direction:ltr;block-progression:tb;writing-mode:lr-tb;text-anchor:start;baseline-shift:baseline;color:#000000;fill:#ffff00;fill-opacity:1;stroke:none;stroke-width:10;marker:none;visibility:visible;display:inline;overflow:visible;enable-background:accumulate;font-family:Sans;-inkscape-font-specification:Sans"
   d="m 226.53078,172.22109 129.41862,0 c 14.23242,0 25.97487,11.74111 25.97487,25.97191 l -18.22798,0 c 0,-4.44893 -3.29746,-7.74601 -7.74689,-7.74601 l -129.41863,0 z"
   id="path4803"
   sodipodi:nodetypes="csccscc" /><path
   sodipodi:nodetypes="csccsc"
   id="path4805"
   d="m 363.6963,198.193 c 0,-4.44893 -3.29747,-7.74601 -7.7469,-7.74601 l -129.41863,0 m 0,-18.22591 129.41863,0 c 14.23243,0 25.97487,11.74112 25.97487,25.97192"
   style="font-size:medium;font-style:normal;font-variant:normal;font-weight:normal;font-stretch:normal;text-indent:0;text-align:start;text-decoration:none;line-height:normal;letter-spacing:normal;word-spacing:normal;text-transform:none;direction:ltr;block-progression:tb;writing-mode:lr-tb;text-anchor:start;baseline-shift:baseline;color:#000000;fill:none;stroke:#ff3300;stroke-width:1;stroke-miterlimit:4;stroke-dasharray:none;marker:none;visibility:visible;display:inline;overflow:visible;enable-background:accumulate;font-family:Sans;-inkscape-font-specification:Sans;stroke-opacity:1" /><path
   id="path4807"
   d="m 238.83467,164.47508 18.22797,0 0,56.95594 -18.22797,0 z"
   style="font-size:medium;font-style:normal;font-variant:normal;font-weight:normal;font-stretch:normal;text-indent:0;text-align:start;text-decoration:none;line-height:normal;letter-spacing:normal;word-spacing:normal;text-transform:none;direction:ltr;block-progression:tb;writing-mode:lr-tb;text-anchor:start;baseline-shift:baseline;color:#000000;fill:#ffff00;fill-opacity:1;stroke:none;stroke-width:10;marker:none;visibility:visible;display:inline;overflow:visible;enable-background:accumulate;font-family:Sans;-inkscape-font-specification:Sans"
   sodipodi:nodetypes="ccccc" /><path
   sodipodi:nodetypes="cccc"
   style="font-size:medium;font-style:normal;font-variant:normal;font-weight:normal;font-stretch:normal;text-indent:0;text-align:start;text-decoration:none;line-height:normal;letter-spacing:normal;word-spacing:normal;text-transform:none;direction:ltr;block-progression:tb;writing-mode:lr-tb;text-anchor:start;baseline-shift:baseline;color:#000000;fill:none;stroke:#ff3300;stroke-width:1;stroke-miterlimit:4;stroke-dasharray:none;marker:none;visibility:visible;display:inline;overflow:visible;enable-background:accumulate;font-family:Sans;-inkscape-font-specification:Sans;stroke-opacity:1"
   d="m 238.83466,221.43101 0,-56.95593 m 18.22798,0 0,56.95593"
   id="path4809" /><path
   style="color:#000000;fill:#ffff00;stroke:none;stroke-width:1;marker:none;visibility:visible;display:inline;overflow:visible;enable-background:accumulate"
   d="m 230.63207,147.16048 c 0,-9.56258 7.75291,-17.3146 17.31659,-17.3146 3.34729,0 6.46511,0.97544 9.11398,2.61997 l 0,29.38926 c -2.64887,1.64452 -5.76669,2.61997 -9.11398,2.61997 -9.56368,0 -17.31659,-7.75202 -17.31659,-17.3146 z"
   id="path4813" /><path
   style="color:#000000;fill:#ff3300;stroke:none;stroke-width:1;marker:none;visibility:visible;display:inline;overflow:visible;enable-background:accumulate;fill-opacity:1"
   d="m 218.80214,136.22494 c 2.0134,0 3.64559,-1.63199 3.64559,-3.64517 0,-2.0132 -1.63219,-3.64519 -3.64559,-3.64519 -2.01341,0 -3.64561,1.63199 -3.64561,3.64519 0,2.01318 1.6322,3.64517 3.64561,3.64517 z"
   id="path4818" /><path
   style="color:#000000;fill:#ff3300;stroke:none;stroke-width:1;marker:none;visibility:visible;display:inline;overflow:visible;enable-background:accumulate;fill-opacity:1"
   d="m 184.16898,179.0558 c 2.01341,0 3.64559,-1.63199 3.64559,-3.64517 0,-2.01319 -1.63218,-3.64518 -3.64559,-3.64518 -2.01341,0 -3.6456,1.63199 -3.6456,3.64518 0,2.01318 1.63219,3.64517 3.6456,3.64517 z"
   id="path3996" /><text
   xml:space="preserve"
   style="font-size:18px;font-style:normal;font-variant:normal;font-weight:300;font-stretch:normal;text-indent:0;text-align:start;text-decoration:none;line-height:125%;letter-spacing:0px;word-spacing:0px;text-transform:none;direction:ltr;block-progression:tb;writing-mode:lr-tb;text-anchor:start;baseline-shift:baseline;color:#000000;fill:#ff3300;fill-opacity:1;fill-rule:nonzero;stroke:none;marker:none;visibility:visible;display:inline;overflow:visible;enable-background:accumulate;font-family:Roboto Mono;-inkscape-font-specification:Roboto Mono Light"
   x="147.17191"
   y="375.84482"
   id="text4870-8"
   sodipodi:linespacing="125%"><tspan
     sodipodi:role="line"
     id="tspan4872-7"
     x="147.17191"
     y="375.84482">by Femke Snelting</tspan></text>
</g></svg>