<?xml version="1.0" encoding="UTF-8" standalone="no"?>
<!-- CLEANED: 1496071342/dbb8daa5f58aaeef46155b098dc154fe -->
<!-- Created with Inkscape (http://www.inkscape.org/) -->
<svg
   xmlns:dc="http://purl.org/dc/elements/1.1/"
   xmlns:cc="http://creativecommons.org/ns#"
   xmlns:rdf="http://www.w3.org/1999/02/22-rdf-syntax-ns#"
   xmlns:svg="http://www.w3.org/2000/svg"
   xmlns="http://www.w3.org/2000/svg"
   xmlns:sodipodi="http://sodipodi.sourceforge.net/DTD/sodipodi-0.dtd"
   xmlns:inkscape="http://www.inkscape.org/namespaces/inkscape"
   width="60"
   height="30"
   id="svg2"
   version="1.1"
   inkscape:version="0.48.3.1 r9886"
   sodipodi:docname="click4info.svg">
  <defs
     id="defs4" />
  <sodipodi:namedview
     id="base"
     pagecolor="#e6e6e6"
     bordercolor="#666666"
     borderopacity="1.0"
     inkscape:pageopacity="1"
     inkscape:pageshadow="2"
     inkscape:document-units="px"
     showgrid="false" />
  <metadata
     id="metadata7">
    <rdf:RDF>
      <cc:Work
         rdf:about="">
        <dc:format>image/svg+xml</dc:format>
        <dc:type
           rdf:resource="http://purl.org/dc/dcmitype/StillImage" />
        <dc:title />
      </cc:Work>
    </rdf:RDF>
  </metadata>
  <g
     inkscape:label="Layer 1"
     inkscape:groupmode="layer"
     id="layer1">
    <path
       sodipodi:type="arc"
       style="color:#000000;fill:#ffffff;stroke:#999999;stroke-width:0.70675486;stroke-miterlimit:4;stroke-dasharray:none;marker:none;visibility:visible;display:inline;overflow:visible;enable-background:accumulate"
       id="path2985"
       sodipodi:cx="6.1841054"
       sodipodi:cy="7.9409943"
       sodipodi:rx="4.9472842"
       sodipodi:ry="4.9472842"
       d="m 11.13139,7.9409943 a 4.9472842,4.9472842 0 1 1 -9.8945688,0 4.9472842,4.9472842 0 1 1 9.8945688,0 z"
       transform="matrix(1.4149177,0,0,1.4149177,-0.7500002,3.7641467)" />
    <text
       xml:space="preserve"
       style="font-size:11px;font-style:normal;font-variant:normal;font-weight:bold;font-stretch:normal;text-align:start;line-height:140.99999666%;letter-spacing:0px;word-spacing:0px;writing-mode:lr-tb;text-anchor:start;fill:#999999;fill-opacity:1;stroke:none;font-family:Roboto Mono;-inkscape-font-specification:Roboto Mono Bold"
       x="4.5756836"
       y="18.910156"
       id="text3774"
       sodipodi:linespacing="141%"><tspan
         sodipodi:role="line"
         id="tspan3776"
         x="4.5756836"
         y="18.910156">C</tspan></text>
    <text
       sodipodi:linespacing="141%"
       id="text3778"
       y="18.887207"
       x="15.575684"
       style="font-size:11px;font-style:normal;font-variant:normal;font-weight:bold;font-stretch:normal;text-align:start;line-height:140.99999666%;letter-spacing:0px;word-spacing:0px;writing-mode:lr-tb;text-anchor:start;fill:#ffffff;fill-opacity:1;stroke:none;font-family:Roboto Mono;-inkscape-font-specification:Roboto Mono Bold"
       xml:space="preserve"><tspan
         y="18.887207"
         x="15.575684"
         id="tspan3780"
         sodipodi:role="line">?</tspan></text>
    <path
       id="path3786"
       style="fill:none;stroke:#ffffff;stroke-width:1;stroke-linecap:round;stroke-linejoin:round;stroke-miterlimit:4;stroke-opacity:1;stroke-dasharray:none"
       d="m 34.033456,17.966543 2.933087,-3 -2.933087,-3 m -9,3 11.933087,0"
       sodipodi:nodetypes="ccccc" />
    <rect
       style="color:#000000;fill:#ffffff;fill-opacity:1;fill-rule:nonzero;stroke:#999999;stroke-width:1;marker:none;visibility:visible;display:inline;overflow:visible;enable-background:accumulate"
       id="rect3791"
       width="11"
       height="14"
       x="41.047871"
       y="8.7120857" />
    <g
       id="g3802"
       transform="translate(0,2)">
      <path
         id="path3414-6"
         d="m 46.99995,12 0,1 -1,0 0,6 -2,0 0,1 -1,0 0,7 1,0 0,1 L 58,28 l 0,-1 1,0 0,-8 -1,0 0,-1 -2,0 0,-1 -3,0 -1,0 0,-1 -2,0 0,-3 -1,0 0,-1 -2.00005,0 z"
         style="color:#000000;fill:#ffffff;fill-opacity:1;fill-rule:nonzero;stroke:none;stroke-width:1px;marker:none;visibility:visible;display:inline;overflow:visible;enable-background:accumulate" />
      <path
         id="path3308-7"
         d="m 46.99995,12 0,1 L 49,13 49,12 46.99995,12 z M 49,13 l 0,7 1,0 0,-3 2,0 0,-1 -2,0 0,-3 -1,0 z m 3,4 0,4 1,0 0,-3 2,0 0,1 0,3 1,0 0,-3 2,0 0,-1 -2,0 0,-1 -3,0 -1,0 z m 6,2 0,8 1,0 0,-8 -1,0 z m 0,8 -14.00005,0 0,1 L 58,28 58,27 z m -14.00005,0 0,-7 -1,0 0,7 1,0 z m 0,-7 2,0 0,3 1,0 0,-10 -1,0 0,6 -2,0 0,1 z"
         style="color:#000000;fill:#999999;fill-opacity:1;fill-rule:nonzero;stroke:none;stroke-width:1px;marker:none;visibility:visible;display:inline;overflow:visible;enable-background:accumulate" />
    </g>
  </g>
</svg>
